<?xml version="1.0" encoding="UTF-8" standalone="no"?>
<!DOCTYPE svg PUBLIC "-//W3C//DTD SVG 1.1//EN" "http://www.w3.org/Graphics/SVG/1.1/DTD/svg11.dtd">
<svg width="100%" height="100%" viewBox="0 0 980 523" version="1.1" xmlns="http://www.w3.org/2000/svg" xmlns:xlink="http://www.w3.org/1999/xlink" xml:space="preserve" xmlns:serif="http://www.serif.com/" style="fill-rule:evenodd;clip-rule:evenodd;stroke-linejoin:round;stroke-miterlimit:1.5;">
    <g transform="matrix(-1,0,0,1,1813.39,-964.569)">
        <path d="M898.076,1486.77L861.803,1486.77C846.318,1486.77 833.765,1474.21 833.765,1458.73C833.765,1402.03 833.765,1342.21 833.765,1285.51C833.765,1270.03 846.318,1257.47 861.803,1257.47C1003.89,1257.47 1643.26,1257.47 1785.35,1257.47C1800.84,1257.47 1813.39,1270.03 1813.39,1285.51C1813.39,1342.21 1813.39,1402.03 1813.39,1458.73C1813.39,1466.16 1810.44,1473.3 1805.18,1478.56C1799.92,1483.81 1792.79,1486.77 1785.35,1486.77C1766.19,1486.77 1744.26,1486.77 1744.26,1486.77C1744.26,1421.91 1691.61,1369.25 1626.75,1369.25C1561.89,1369.25 1509.23,1421.91 1509.23,1486.77L1133.1,1486.77C1133.1,1421.91 1080.45,1369.25 1015.59,1369.25C950.732,1369.25 898.076,1421.91 898.076,1486.77Z" style="fill:rgb(255,61,61);"/>
        <g transform="matrix(0.965926,0.258819,-0.258819,0.965926,347.247,-246.361)">
            <rect x="1148.68" y="1049.3" width="24.639" height="208.179" style="fill:rgb(255,61,61);"/>
        </g>
        <g transform="matrix(2.0513,0,0,2.0513,-922.634,-1321.98)">
            <path d="M1015.59,1257.47L1015.59,1369.25" style="fill:none;stroke:rgb(55,55,55);stroke-opacity:0.25;stroke-width:0.61px;"/>
        </g>
        <g transform="matrix(2.0513,0,0,2.0513,-595.044,-1321.98)">
            <path d="M1015.59,1257.47L1015.59,1369.25" style="fill:none;stroke:rgb(55,55,55);stroke-opacity:0.25;stroke-width:0.61px;"/>
        </g>
        <ellipse cx="1422.26" cy="1285.95" rx="38.359" ry="5.712" style="fill-opacity:0.22;"/>
        <ellipse cx="1422.26" cy="1285.95" rx="38.359" ry="5.712" style="fill:none;"/>
        <clipPath id="_clip1">
            <ellipse cx="1422.26" cy="1285.95" rx="38.359" ry="5.712"/>
        </clipPath>
        <g clip-path="url(#_clip1)">
            <g transform="matrix(1,0,0,1,-3.40497,8.40425)">
                <ellipse cx="1395.89" cy="1277.54" rx="42.761" ry="28.578" style="fill:rgb(255,0,0);fill-opacity:0.28;"/>
            </g>
        </g>
        <path d="M1721.3,1257.47L1721.3,966.027" style="fill:none;stroke:rgb(90,90,90);stroke-width:2.92px;"/>
        <g transform="matrix(0.0783927,0,0,0.0783927,1586.36,1158.9)">
            <path d="M1721.3,1257.47L1721.3,966.027" style="fill:none;stroke:rgb(90,90,90);stroke-width:132.88px;"/>
        </g>
    </g>
</svg>
