<?xml version="1.0" encoding="UTF-8" standalone="no"?>
<!DOCTYPE svg PUBLIC "-//W3C//DTD SVG 1.1//EN" "http://www.w3.org/Graphics/SVG/1.1/DTD/svg11.dtd">
<svg width="100%" height="100%" viewBox="0 0 194 194" version="1.1" xmlns="http://www.w3.org/2000/svg" xmlns:xlink="http://www.w3.org/1999/xlink" xml:space="preserve" xmlns:serif="http://www.serif.com/" style="fill-rule:evenodd;clip-rule:evenodd;stroke-linecap:round;stroke-linejoin:round;stroke-miterlimit:1.5;">
    <g transform="matrix(-1,0,0,1,1282.05,-1318.23)">
        <circle cx="1185.31" cy="1414.97" r="90.489" style="fill:none;stroke:black;stroke-width:12.5px;"/>
        <g transform="matrix(0.866233,0,0,0.866233,158.555,189.276)">
            <circle cx="1185.31" cy="1414.97" r="90.489" style="fill:none;stroke:rgb(196,196,196);stroke-width:14.43px;"/>
        </g>
        <path d="M1106.92,1414.97L1263.69,1414.97" style="fill:none;stroke:rgb(196,196,196);stroke-width:12.5px;"/>
        <path d="M1106.92,1414.97L1263.69,1414.97" style="fill:none;stroke:rgb(196,196,196);stroke-width:12.5px;"/>
        <g transform="matrix(6.12323e-17,-1,1,6.12323e-17,-229.664,2600.28)">
            <path d="M1106.92,1414.97L1263.69,1414.97" style="fill:none;stroke:rgb(196,196,196);stroke-width:12.5px;"/>
        </g>
        <g transform="matrix(-0.707107,-0.707107,0.707107,-0.707107,1022.91,3253.65)">
            <path d="M1106.92,1414.97L1263.69,1414.97" style="fill:none;stroke:rgb(196,196,196);stroke-width:12.5px;"/>
        </g>
        <g transform="matrix(-0.707107,0.707107,-0.707107,-0.707107,3023.99,1577.37)">
            <path d="M1106.92,1414.97L1263.69,1414.97" style="fill:none;stroke:rgb(196,196,196);stroke-width:12.5px;"/>
        </g>
    </g>
</svg>
